# xmcd
#
# Track frame offsets:
#	183
#	18243
#	36340
#	50280
#	71568
#	93323
#	109750
#	121008
#	135370
#	155878
#	176875
#	192658
#	206293
#	219755
#	234638
#
# Disc length: 3452
#
# Revision: 1
# Processed by: cddbd v1.5.1PL0 Copyright (c) Steve Scherf et al.
# Submitted via: CDex 1.50Beta7
# Normalized: r0:TDELIM( - )
#
DISCID=cd0d7a0f
DTITLE=La Repubblica - Disco mese - 7 - Canzoni in jazz
DYEAR=1995
DGENRE=Jazz
TTITLE0=Ella Fitzgerald and Louis Armstrong - Love is here to stay
TTITLE1=Ella Fitzgerald - I get a kick out of you
TTITLE2=Billie Holiday - The man i love
TTITLE3=Louis Prima - Just a gigolo
TTITLE4=Sarah Vaughan - Embraceable you
TTITLE5=Laura Fygi - Dream a little dream of me
TTITLE6=Carmen McRae - Nice work if you can get it
TTITLE7=Duke Ellington - It don't mean a thing it
TTITLE8=Ella Fitzgerald - Someone to watch over me
TTITLE9=Ella Fitzgerald and Louis Armstrong - They can't take that away from me
TTITLE10=Billie Holiday - Blue moon
TTITLE11=Joe Liggins and His Honeydrippers - Pink champagne
TTITLE12=Bessie Smith - Nobody know you when you're down and out
TTITLE13=Fred Astaire - Cheek to cheek
TTITLE14=Stan Getz and Astrud Gilberto - The girl of Ipamena
EXTD=YEAR: 1995
EXTT0=
EXTT1=
EXTT2=
EXTT3=
EXTT4=
EXTT5=
EXTT6=
EXTT7=
EXTT8=
EXTT9=
EXTT10=
EXTT11=
EXTT12=
EXTT13=
EXTT14=
PLAYORDER=
